# xmcd
#
# Track frame offsets:
# 150
# 28772
# 51191
# 71934
# 93754
# 116530
# 143936
# 176437
# 196674
# 221760
#
# Disc length: 3181 seconds
#
# Revision: 1
# Processed by: cddbd v1.4PL0 Copyright (c) Steve Scherf et al.
# Submitted via: Axialis_AX_CDPlayer 2.6
#
DISCID=8f0c6b0a
DTITLE=Cesar Camargo Mariano  and Romero Lubambo - Duo
DYEAR=2003
DGENRE=
TTITLE0=Samba Dobrado
TTITLE1=Choro #7
TTITLE2=Joy Spring 
TTITLE3=Mr. Jr.
TTITLE4=Era Bom
TTITLE5=O que É, o que é
TTITLE6=Fotografia
TTITLE7=Short Cut
TTITLE8=April Child
TTITLE9=Wave
EXTD=YEAR: 2003
EXTT0=
EXTT1=
EXTT2=
EXTT3=
EXTT4=
EXTT5=
EXTT6=
EXTT7=
EXTT8=
EXTT9=
PLAYORDER=
